<svg fill="none" height="256" viewBox="0 0 256 256" width="256" xmlns="http://www.w3.org/2000/svg" xmlns:xlink="http://www.w3.org/1999/xlink"><clipPath id="a"><path d="m0 0h256v256h-256z"/></clipPath><g clip-path="url(#a)"><path d="m0 0h256v256h-256z" fill="#fff"/><rect fill="#098dd6" height="256" rx="6" width="256"/><g fill="#fff"><path d="m44 128.5c0-8.56 6.9396-15.5 15.5-15.5h92c8.56 0 15.5 6.94 15.5 15.5 0 8.56-6.94 15.5-15.5 15.5h-92c-8.5604 0-15.5-6.94-15.5-15.5z"/><path d="m44 82.5c0-8.5604 6.9396-15.5 15.5-15.5h92c8.56 0 15.5 6.9396 15.5 15.5 0 8.5604-6.94 15.5-15.5 15.5h-92c-8.5604 0-15.5-6.9396-15.5-15.5z"/><path d="m180 128.5c0-8.56 6.94-15.5 15.5-15.5 8.56 0 15.5 6.94 15.5 15.5 0 8.56-6.94 15.5-15.5 15.5-8.56 0-15.5-6.94-15.5-15.5z"/><path d="m44 174.5c0-8.56 6.9396-15.5 15.5-15.5h136c8.56 0 15.5 6.94 15.5 15.5 0 8.56-6.94 15.5-15.5 15.5h-136c-8.5604 0-15.5-6.94-15.5-15.5z"/></g></g></svg>